<svg width="42" height="42" viewBox="0 0 42 42" fill="none" xmlns="http://www.w3.org/2000/svg">
<g id="Vector">
<path d="M29.451 17.9231V8.69231C29.451 6.65218 28.5607 4.69561 26.976 3.25302C25.3913 1.81044 23.2421 1 21.001 1C18.7599 1 16.6106 1.81044 15.026 3.25302C13.4413 4.69561 12.551 6.65218 12.551 8.69231V17.9231M38.1398 13.8349L40.9857 38.4503C41.1435 39.8144 39.9718 41 38.4643 41H3.53771C3.18215 41.0003 2.83049 40.9326 2.50557 40.8012C2.18065 40.6697 1.88974 40.4775 1.65173 40.2371C1.41372 39.9966 1.23394 39.7133 1.12407 39.4054C1.0142 39.0976 0.976689 38.7721 1.01398 38.4503L3.86219 13.8349C3.92789 13.2678 4.22188 12.743 4.68747 12.3616C5.15307 11.9801 5.7573 11.7691 6.38366 11.7692H35.6183C36.9162 11.7692 38.0046 12.6615 38.1398 13.8349ZM13.396 17.9231C13.396 18.1271 13.307 18.3227 13.1485 18.467C12.9901 18.6113 12.7751 18.6923 12.551 18.6923C12.3269 18.6923 12.112 18.6113 11.9535 18.467C11.795 18.3227 11.706 18.1271 11.706 17.9231C11.706 17.7191 11.795 17.5234 11.9535 17.3791C12.112 17.2349 12.3269 17.1538 12.551 17.1538C12.7751 17.1538 12.9901 17.2349 13.1485 17.3791C13.307 17.5234 13.396 17.7191 13.396 17.9231ZM30.296 17.9231C30.296 18.1271 30.2069 18.3227 30.0485 18.467C29.89 18.6113 29.6751 18.6923 29.451 18.6923C29.2269 18.6923 29.0119 18.6113 28.8535 18.467C28.695 18.3227 28.606 18.1271 28.606 17.9231C28.606 17.7191 28.695 17.5234 28.8535 17.3791C29.0119 17.2349 29.2269 17.1538 29.451 17.1538C29.6751 17.1538 29.89 17.2349 30.0485 17.3791C30.2069 17.5234 30.296 17.7191 30.296 17.9231Z" fill="black"/>
<path d="M29.451 17.9231V8.69231C29.451 6.65218 28.5607 4.69561 26.976 3.25302C25.3913 1.81044 23.2421 1 21.001 1C18.7599 1 16.6106 1.81044 15.026 3.25302C13.4413 4.69561 12.551 6.65218 12.551 8.69231V17.9231M38.1398 13.8349L40.9857 38.4503C41.1435 39.8144 39.9718 41 38.4643 41H3.53771C3.18215 41.0003 2.83049 40.9326 2.50557 40.8012C2.18065 40.6697 1.88974 40.4775 1.65173 40.2371C1.41372 39.9966 1.23394 39.7133 1.12407 39.4054C1.0142 39.0976 0.976689 38.7721 1.01398 38.4503L3.86219 13.8349C3.92789 13.2678 4.22188 12.743 4.68747 12.3616C5.15307 11.9801 5.7573 11.7691 6.38366 11.7692H35.6183C36.9162 11.7692 38.0046 12.6615 38.1398 13.8349ZM13.396 17.9231C13.396 18.1271 13.307 18.3227 13.1485 18.467C12.9901 18.6113 12.7751 18.6923 12.551 18.6923C12.3269 18.6923 12.112 18.6113 11.9535 18.467C11.795 18.3227 11.706 18.1271 11.706 17.9231C11.706 17.7191 11.795 17.5234 11.9535 17.3791C12.112 17.2349 12.3269 17.1538 12.551 17.1538C12.7751 17.1538 12.9901 17.2349 13.1485 17.3791C13.307 17.5234 13.396 17.7191 13.396 17.9231ZM30.296 17.9231C30.296 18.1271 30.2069 18.3227 30.0485 18.467C29.89 18.6113 29.6751 18.6923 29.451 18.6923C29.2269 18.6923 29.0119 18.6113 28.8535 18.467C28.695 18.3227 28.606 18.1271 28.606 17.9231C28.606 17.7191 28.695 17.5234 28.8535 17.3791C29.0119 17.2349 29.2269 17.1538 29.451 17.1538C29.6751 17.1538 29.89 17.2349 30.0485 17.3791C30.2069 17.5234 30.296 17.7191 30.296 17.9231Z" stroke="black" stroke-width="1.5" stroke-linecap="round" stroke-linejoin="round"/>
</g>
</svg>
