<svg width="27" height="26" viewBox="0 0 27 26" fill="none" xmlns="http://www.w3.org/2000/svg">
<g id="Frame" clip-path="url(#clip0_266_150)">
<path id="Vector" d="M25.6687 18.8546C25.282 21.8709 22.7118 24.3759 19.558 24.7545C17.6417 24.9849 15.8657 24.4781 14.4839 23.4952L14.4826 23.4943C14.0571 23.1932 14.1575 22.5834 14.6629 22.4366L14.6642 22.4362C18.7553 21.2393 21.9839 18.1072 23.239 14.1332L23.2394 14.1321C23.3794 13.6859 24.0493 13.5319 24.3872 13.9673C25.3884 15.3145 25.9041 17.0207 25.6687 18.8546Z" stroke="#6A6A6A" stroke-width="1.3"/>
<path id="Vector_2" d="M10.2778 8.5999H11.7819C11.7917 8.5999 11.8105 8.603 11.8339 8.6284C11.8581 8.6546 11.8811 8.7 11.8811 8.7624C11.8811 8.8994 11.8988 9.0319 11.932 9.1578L10.2778 8.5999ZM14.5855 10.6264C14.4713 10.4667 14.3412 10.3226 14.1967 10.1929C14.7339 9.9387 15.1186 9.4006 15.1186 8.7624C15.1186 7.14142 13.9659 5.81628 12.45 5.50435C12.2299 4.8701 11.6109 4.4249 10.9165 4.4249C10.2452 4.4249 9.6444 4.84087 9.4063 5.44149C7.89088 5.65045 6.71441 6.95912 6.71441 8.5249C6.71441 9.2213 6.87846 9.8507 7.25336 10.3717C7.36805 10.5311 7.49847 10.6748 7.64294 10.8038C7.10226 11.0566 6.71441 11.5965 6.71441 12.2374C6.71441 13.8584 7.86711 15.1835 9.38291 15.4954C9.60301 16.1297 10.2221 16.5749 10.9165 16.5749C11.5926 16.5749 12.1973 16.1528 12.4318 15.5451C13.9448 15.3339 15.1186 14.0264 15.1186 12.4624C15.1186 11.7737 14.9584 11.1477 14.5855 10.6264ZM9.9519 12.2374C9.9519 12.0954 9.9329 11.9583 9.8973 11.8282L11.5922 12.3999H10.0511C10.0412 12.3999 10.0225 12.3968 9.999 12.3714C9.9748 12.3452 9.9519 12.2998 9.9519 12.2374ZM1.23315 10.4874C1.23315 5.35381 5.54605 1.1499 10.9036 1.1499C16.2594 1.1499 20.5615 5.35234 20.574 10.4881C20.5736 15.6214 16.2608 19.8249 10.9036 19.8249C5.54605 19.8249 1.23315 15.621 1.23315 10.4874Z" stroke="#6A6A6A" stroke-width="1.3"/>
</g>
<defs>
<clipPath id="clip0_266_150">
<rect width="27" height="26" fill="white"/>
</clipPath>
</defs>
</svg>
